# xmcd CD database file
#
# Track frame offsets:
#	150
#	3292
#	21070
#	35785
#	62713
#	74757
#	95234
#	128055
#	145395
#	158246
#	174465
#	193265
#	213553
#	230226
#	245863
#	261210
#	276420
#	288589
#	303177
#	316270
#	338556
#
# Disc length: 4755 seconds
#
# Revision: 0
# Processed by: cddbd v1.5.1PL0 Copyright (c) Steve Scherf et al.
# Submitted via: CDex 1.51
#
DISCID=4f129115
DTITLE=Various Artist - Groove Merchant
DYEAR=1900
DGENRE=Jazz
TTITLE0=Intro
TTITLE1=Ocean Of His Might/MICHAEL LONGO
TTITLE2=Inner Crisis/LARRY WILLIS
TTITLE3=It Feels So Nice [Do It Again]/JIMMY McGRIFF
TTITLE4=A Clue/JIMMY PONDER
TTITLE5=Babbitt's Other Song/LONNIE SMITH
TTITLE6=Co Co/JOE THOMAS
TTITLE7=We've Only just Begun/O'DONEL LEVY
TTITLE8=The Bird/JIMMY McGRIFF
TTITLE9=Sizzle Stick/LONNIE SMITH
TTITLE10=Mama Carrie's Pad/JOE THOMAS
TTITLE11=Snow Blower/B.BAKER CHOCOLATE Co.
TTITLE12=The Mean Machine/JIMMY McGRIFF
TTITLE13=It's Too Late/O'DONEL LEVY
TTITLE14=Red Sails In the Sunset/JIMMY McGRIFF
TTITLE15=Out On The Coast/LARRY WILLIS
TTITLE16=For The Love Of It/LONNIE SMITH
TTITLE17=No Trouble On The Mountain/RICHARD GROOVE HOLMES
TTITLE18=I Wanna Be Where You Are/O'DONEL LEVY
TTITLE19=Like a Thief In The Night/MICHAEL LONGO
TTITLE20=Hey, Love/O'DONEL LEVY
EXTD=
EXTT0=
EXTT1=
EXTT2=
EXTT3=
EXTT4=
EXTT5=
EXTT6=
EXTT7=
EXTT8=
EXTT9=
EXTT10=
EXTT11=
EXTT12=
EXTT13=
EXTT14=
EXTT15=
EXTT16=
EXTT17=
EXTT18=
EXTT19=
EXTT20=
PLAYORDER=
